<svg width="35" height="35" viewBox="0 0 35 35" fill="none" xmlns="http://www.w3.org/2000/svg">
<path d="M9.8918 0C4.44414 0 0 4.44414 0 9.8918V24.197C0 29.6344 4.44414 34.0786 9.8918 34.0786H24.197C29.6344 34.0786 34.0786 29.6344 34.0786 24.1868V9.8918C34.0786 4.44414 29.6344 0 24.1868 0H9.8918ZM9.8918 2.62143H24.1868C28.2213 2.62143 31.4571 5.85725 31.4571 9.8918V24.1868C31.4571 28.2213 28.2213 31.4571 24.197 31.4571H9.8918C5.85725 31.4571 2.62143 28.2213 2.62143 24.197V9.8918C2.62143 5.85725 5.85725 2.62143 9.8918 2.62143ZM27.525 5.24286C26.798 5.24286 26.2143 5.82653 26.2143 6.55357C26.2143 7.28061 26.798 7.86429 27.525 7.86429C28.252 7.86429 28.8357 7.28061 28.8357 6.55357C28.8357 5.82653 28.252 5.24286 27.525 5.24286ZM17.0393 7.86429C11.991 7.86429 7.86429 11.991 7.86429 17.0393C7.86429 22.0876 11.991 26.2143 17.0393 26.2143C22.0876 26.2143 26.2143 22.0876 26.2143 17.0393C26.2143 11.991 22.0876 7.86429 17.0393 7.86429ZM17.0393 10.4857C20.6745 10.4857 23.5929 13.4041 23.5929 17.0393C23.5929 20.6745 20.6745 23.5929 17.0393 23.5929C13.4041 23.5929 10.4857 20.6745 10.4857 17.0393C10.4857 13.4041 13.4041 10.4857 17.0393 10.4857Z" fill="#00868A"/>
</svg>
