<svg width="19" height="35" viewBox="0 0 19 35" fill="none" xmlns="http://www.w3.org/2000/svg">
<path d="M9.21464 0C4.17658 0 0.0396421 4.13694 0.0396421 9.175C0.0396421 14.2131 4.17658 18.35 9.21464 18.35C14.2527 18.35 18.3896 14.2131 18.3896 9.175C18.3896 4.13694 14.2527 0 9.21464 0ZM9.21464 5.24286C11.4162 5.24286 13.1468 6.97341 13.1468 9.175C13.1468 11.3766 11.4162 13.1071 9.21464 13.1071C7.01305 13.1071 5.2825 11.3766 5.2825 9.175C5.2825 6.97341 7.01305 5.24286 9.21464 5.24286ZM2.59963 19.3433C1.39132 19.3535 0.346843 20.1932 0.0703632 21.381C-0.195877 22.5586 0.37756 23.7669 1.45276 24.3097C2.34363 24.7705 3.29595 25.1289 4.27898 25.4361L0.654039 29.7778C0.0191635 30.4946 -0.165156 31.4981 0.152283 32.389C0.469722 33.2901 1.24796 33.9352 2.19003 34.0991C3.13211 34.2527 4.08442 33.884 4.6681 33.1365L9.21464 27.6888L13.7612 33.1365C14.3449 33.884 15.2972 34.2527 16.2393 34.0991C17.1813 33.9352 17.9596 33.2901 18.277 32.389C18.5944 31.4981 18.4101 30.4946 17.7752 29.7778L14.1503 25.4361C15.1333 25.1289 16.0857 24.7705 16.9663 24.3097C18.2565 23.6441 18.7583 22.0671 18.0927 20.7769C17.4373 19.4866 15.8501 18.9849 14.5599 19.6505C12.9317 20.4902 11.1398 20.9714 9.21464 20.9714C7.28953 20.9714 5.49754 20.4902 3.86939 19.6505C3.48027 19.4457 3.03995 19.333 2.59963 19.3433Z" fill="#00868A"/>
</svg>
