<svg width="35" height="35" viewBox="0 0 35 35" fill="none" xmlns="http://www.w3.org/2000/svg">
<path d="M17.1622 0C7.76189 0 0.122879 7.63901 0.122879 17.0393C0.122879 20.439 1.21856 23.5519 2.92863 26.2143L0 34.396L9.11356 31.8258C11.5302 33.1467 14.2131 34.0786 17.1622 34.0786C26.5624 34.0786 34.2015 26.4396 34.2015 17.0393C34.2015 7.63901 26.5624 0 17.1622 0ZM17.1622 2.62143C25.1391 2.62143 31.58 9.06236 31.58 17.0393C31.58 25.0162 25.1391 31.4571 17.1622 31.4571C14.4281 31.4571 11.8988 30.6891 9.70748 29.3682L9.2262 29.0712L4.1779 30.4843L5.81629 25.9378L5.41694 25.3849C3.73758 23.0194 2.74431 20.1522 2.74431 17.0393C2.74431 9.06236 9.18524 2.62143 17.1622 2.62143ZM10.7724 7.86429C10.4755 7.86429 9.98396 7.98717 9.56412 8.47868C9.15452 8.95996 7.98716 10.1376 7.98716 12.5337C7.98716 14.9196 9.60508 17.2338 9.83036 17.5615C10.0556 17.8892 13.015 22.7941 17.541 24.9036C18.6162 25.4053 19.4559 25.7023 20.1113 25.9276C21.1967 26.2962 22.1797 26.245 22.958 26.1221C23.8284 25.9788 25.6306 24.9445 26.0095 23.8079C26.3781 22.6713 26.3884 21.6985 26.2655 21.4937C26.1631 21.2889 25.8559 21.166 25.4053 20.9305C24.9548 20.6847 22.7327 19.5071 22.3231 19.3535C21.9135 19.1794 21.6063 19.1078 21.2991 19.589C21.0021 20.0806 20.142 21.1762 19.8758 21.4937C19.6095 21.8213 19.3535 21.8623 18.903 21.6165C18.4422 21.3708 16.9881 20.8588 15.2678 19.1999C13.9263 17.9097 13.015 16.3225 12.759 15.831C12.4927 15.3395 12.7283 15.0835 12.9535 14.8479C13.1583 14.6227 13.4041 14.2745 13.6294 13.9878C13.8547 13.7113 13.9263 13.4963 14.0799 13.1788C14.2335 12.8511 14.1619 12.5644 14.0492 12.3289C13.9263 12.0831 13.0252 9.687 12.6566 8.7142C12.2879 7.77213 11.9091 7.89501 11.6326 7.88477C11.3766 7.86429 11.0694 7.86429 10.7724 7.86429Z" fill="#00868A"/>
</svg>
