<svg width="43" height="27" viewBox="0 0 43 27" fill="none" xmlns="http://www.w3.org/2000/svg">
<path d="M20.2471 0.00233316C18.0762 -0.0181454 16.4378 0.0842528 15.0656 0.790812C14.5024 1.07753 14.1031 1.44617 13.7959 1.87625C13.632 2.09128 13.4784 2.28584 13.4068 2.7364C13.3658 2.95144 13.3351 3.30984 13.5604 3.69896C13.7856 4.09832 14.2669 4.36456 14.5946 4.41575C14.8404 4.44648 15.3626 4.66151 15.4548 4.78439C15.6698 5.09159 15.7517 5.31687 15.7824 5.43975C15.8131 5.56263 15.8029 5.48071 15.8029 5.48071V5.60359C15.8029 5.60359 15.8848 6.89383 15.8336 8.22502C15.8029 8.88038 15.7415 9.56645 15.6391 10.0273C15.5367 10.488 15.2807 10.6007 15.6493 10.3857C15.3933 10.5393 15.4855 10.6007 15.168 10.4368C14.8404 10.2832 13.9904 9.56645 12.8743 7.55942C11.7581 5.54215 10.9492 4.49767 10.7649 4.2724C10.6932 4.0676 10.5191 3.64776 9.92518 3.18696C9.15718 2.59304 8.3687 2.5828 8.3687 2.5828L8.29702 2.57256H2.57289C2.57289 2.57256 2.24521 2.5828 1.86633 2.66472C1.48746 2.74664 0.944736 2.8388 0.432739 3.47368H0.4225C-0.0997392 4.13928 -0.00757951 4.74343 0.0333803 5.11207C0.0845801 5.49095 0.19722 5.78791 0.19722 5.78791L0.217699 5.84935L0.248419 5.91079C0.248419 5.91079 4.62088 15.2394 9.84326 20.9226C14.7482 26.2678 20.4314 26.1654 20.4314 26.1654H23.657L23.7286 26.1552C23.7286 26.1552 24.7629 26.2064 25.6333 25.2336C26.0736 24.7318 26.176 24.2608 26.2272 23.9126C26.2886 23.5542 26.2886 23.2675 26.2886 23.2675V23.3494C26.2886 23.3494 26.3296 22.6736 26.5139 21.967C26.6061 21.6189 26.7392 21.2707 26.8621 21.0762C26.9235 20.9635 26.9235 20.9942 26.944 20.9635C27.1693 21.1274 27.5379 21.5062 27.927 21.9875C28.7257 22.9398 29.6269 24.2608 30.8864 25.1721C31.7977 25.8173 32.6579 26.104 33.3132 26.2064C33.7536 26.2781 34.071 26.2678 34.286 26.2473L38.7404 26.1654H38.7814C38.7814 26.1654 39.703 26.1449 40.6246 25.5613C41.0751 25.2745 41.5974 24.7523 41.7714 24.0048C41.9558 23.2573 41.751 22.4483 41.3209 21.7008C41.4642 21.9568 41.2902 21.6189 41.157 21.3526C41.0239 21.0864 40.8191 20.728 40.5119 20.2774C39.918 19.3968 38.935 18.1578 37.3068 16.5808C36.5388 15.8435 36.0473 15.4339 35.7401 15.1472C35.8323 15.0141 35.8425 15.0039 36.1907 14.5943C36.7436 13.9492 37.5526 12.9968 38.5766 11.5735C39.8054 9.85317 40.6962 8.4503 41.2697 7.28294C41.8431 6.12583 42.3039 5.16327 41.7919 3.97544C41.5154 3.33032 41.0239 3.08456 40.6655 2.93096C40.2969 2.77736 39.9692 2.71592 39.662 2.66472C39.0578 2.57256 38.5254 2.57256 38.5254 2.57256L33.3337 2.61352C33.1801 2.5828 32.5862 2.47016 31.8182 2.96168C31.0604 3.43272 30.8864 3.93448 30.8454 4.08808C30.7225 4.26215 29.8624 5.48071 28.6643 7.61062C27.456 9.76101 26.6368 10.3447 26.5344 10.3959C26.5037 10.3652 26.5651 10.3754 26.4217 10.2935C26.3603 10.2423 26.2989 10.2013 26.2477 9.64837C26.2067 9.09541 26.2579 8.22502 26.2579 7.20102C26.2579 4.99943 26.4525 3.85256 26.3398 2.75688C26.2886 2.20392 26.0633 1.52809 25.5718 1.07753C25.0803 0.637212 24.5478 0.473372 23.9949 0.330012C23.1245 0.114973 21.9469 0.0228144 20.2471 0.00233316ZM20.2266 2.62376C21.8138 2.64424 22.9299 2.76712 23.3395 2.86952C23.6877 2.96168 23.7389 3.00264 23.7286 2.98216C23.7286 3.00264 23.7286 2.9924 23.7286 3.02312C23.7696 3.46344 23.6365 4.87655 23.6365 7.20102C23.6365 8.11238 23.5648 8.99302 23.6365 9.87365C23.7082 10.7543 24.0256 11.8295 24.9574 12.4644H24.9677C24.855 12.3927 26.1453 13.3552 27.3741 12.9149C28.6029 12.4644 29.5756 11.338 30.958 8.89061C32.1664 6.71974 33.0572 5.50119 33.0572 5.50119L33.1392 5.37831L33.2006 5.25543C33.2006 5.25543 33.1801 5.24519 33.2006 5.23495L38.5254 5.19399C38.5254 5.19399 38.894 5.19399 39.2524 5.25543C39.2626 5.25543 39.2729 5.25543 39.2831 5.25543C39.2319 5.27591 39.2729 5.40903 38.9145 6.13607C38.4537 7.0679 37.6243 8.3991 36.4467 10.0477C35.4739 11.3892 34.7468 12.2596 34.2041 12.8944C33.6614 13.5191 33.2518 13.816 32.9856 14.6352C32.8524 15.0346 32.8832 15.6285 33.0777 16.0279C33.262 16.417 33.4873 16.632 33.7126 16.8471C34.1632 17.2771 34.6956 17.697 35.4739 18.465C36.9996 19.9395 37.8598 21.025 38.3411 21.7418C38.5868 22.1104 38.7302 22.3664 38.8223 22.5507C38.9145 22.735 38.8531 22.6634 39.0578 23.0115C39.2319 23.329 39.2012 23.3699 39.2012 23.3494C39.0271 23.4518 38.5868 23.544 38.5766 23.544L34.1222 23.6259L33.9993 23.6566C33.9993 23.6566 34.0096 23.6669 33.7331 23.6259C33.4464 23.5747 32.9958 23.4518 32.4224 23.0422C31.7158 22.5405 30.8249 21.3731 29.9443 20.3082C29.5142 19.7859 29.0739 19.2739 28.5209 18.8643C27.968 18.4547 27.0976 18.0759 26.2067 18.3728C25.4387 18.6186 24.937 19.1818 24.6195 19.704C24.3021 20.2365 24.1178 20.7894 23.9744 21.2912C23.7082 22.305 23.6672 23.2163 23.6672 23.2163V23.2982C23.6672 23.2982 23.6672 23.3597 23.6467 23.4518C23.5955 23.4723 23.5238 23.5235 23.4829 23.544H20.3495C20.3495 23.544 16.0179 23.7693 11.7684 19.1613C7.22183 14.1949 3.17705 5.89031 2.83913 5.19399H8.1127C8.16391 5.21447 8.34822 5.28615 8.32775 5.27591C8.20487 5.17351 8.38918 5.39879 8.38918 5.39879L8.4711 5.59335L8.61446 5.75719C8.61446 5.75719 9.42342 6.74023 10.5805 8.82918C11.8196 11.0717 12.864 12.2391 14.0314 12.8023C15.1988 13.3655 16.4275 12.9661 16.9498 12.6692C17.9226 12.106 18.0352 11.3175 18.1991 10.5904C18.3629 9.86341 18.4141 9.08517 18.4448 8.32742C18.5063 6.87334 18.4243 5.63431 18.4243 5.54215C18.4141 5.51143 18.4141 5.15303 18.3117 4.76391C18.1991 4.36456 17.9943 3.84232 17.6051 3.28936C17.4413 3.06408 17.2877 3.17672 17.1136 3.01288C17.8407 2.80808 18.6189 2.60328 20.2266 2.62376Z" fill="#00868A"/>
</svg>
